<svg xmlns="http://www.w3.org/2000/svg" id="Layer_1" version="1.1" viewBox="0 0 311.81 141.73">
  <defs>
    <style>
      .st0{fill:#6aabe0}.st1{fill:#e8f1fa}.st2{fill:#a5c7ce}.st3{fill:#d3e3f5}.st4{fill:#83b3d9}.st5{fill:#9bc1d1}.st7{fill:#a6c7ea}.st8{fill:#8cb9d5}.st9{fill:#9cc1e8}.st10{fill:#fff}.st12{fill:#c1d8f1}.st13{fill:#87b6d7}.st14{fill:#93bce6}.st15{fill:#8db9e5}.st16{fill:#93bdd4}.st17{fill:#b2cfed}
    </style>
  </defs>
  <path d="M77.98 87.12c0 .33-.09.68-.27 1.05l-1.76 3.48c-1.52 1.86-3.77 2.79-6.75 2.79H47.94l1.25-2.5h18.65c1.42.01 2.4-.38 2.95-1.18l.82-1.63c.16-.31.24-.55.24-.72 0-.29-.21-.49-.64-.58-.18-.04-.66-.06-1.43-.06h-18.5l2.22-4.4c.77-1.21 2.15-2.19 4.13-2.92 1.6-.59 3.08-.88 4.44-.88l20.02-.02-2.16 2.21H62.8c-.83 0-1.61.18-2.34.57-.79.39-1.35.91-1.67 1.57l-.85 1.68h17.07c1.98.01 2.98.52 2.98 1.53Zm6.19 3.68c-.14.68.41 1.08 1.67 1.19h19.05l-1.22 2.47H81.95c-2.59-.01-3.83-.72-3.7-2.14l4.56-9.06c.77-1.21 2.06-2.16 3.86-2.84 1.46-.55 2.85-.83 4.16-.83l19.62-.02-3.47 6.92c-.24.48-.61.95-1.09 1.41-.85.81-2.06 1.22-3.62 1.22H85.02l-.85 1.67Zm5.1-8.45c-.76.4-1.3.93-1.63 1.57l-1.52 3.01h13.27c.93 0 1.68-.11 2.25-.35.61-.48 1.02-.94 1.25-1.38l1.7-3.45h-13c-.79 0-1.56.19-2.32.6Zm48.13-2.07c1.13.53 1.7 1.27 1.7 2.21 0 .29-.06.61-.18.94l-5.54 11.04h-21.45c-2.59-.01-3.89-.72-3.89-2.14 0-.28.04-.5.12-.66l2.16-4.33c.85-1.69 2.67-2.54 5.47-2.54h17.01l.43-.85c.14-.29.21-.56.21-.8 0-.46-.23-.81-.7-1.05-.38-.2-.85-.3-1.4-.3h-18.23l1.1-2.19h20.08c1.13.01 2.17.23 3.1.68Zm-8.21 11.7 2.52-5.05h-12.94c-.95 0-1.59.04-1.91.13-.61.17-1.07.57-1.4 1.22l-1.25 2.5c-.18.8.35 1.19 1.61 1.19h13.37Z" class="st10"/>
  <path d="M166.67 87.17c0 .33-.09.68-.27 1.05l-1.76 3.48c-1.52 1.86-3.77 2.79-6.74 2.79h-21.26l1.25-2.5h18.65c1.42.01 2.4-.38 2.95-1.18l.82-1.63c.16-.31.24-.55.24-.72 0-.29-.21-.49-.64-.58-.18-.04-.66-.06-1.43-.06h-18.5l2.22-4.4c.77-1.21 2.15-2.19 4.13-2.92 1.6-.59 3.08-.88 4.44-.88l20.02-.02-2.16 2.21H151.5c-.83 0-1.61.18-2.34.57-.79.39-1.35.91-1.67 1.57l-.85 1.68h17.07c1.98.01 2.98.52 2.98 1.53Zm30.29-6.89c1.15.53 1.73 1.26 1.73 2.18 0 .29-.06.6-.18.91l-4.53 9c-1.46 1.42-3.57 2.12-6.32 2.12H171.5l-3.62 7.17h-5.47l11.07-22.04h20.32c1.17.01 2.23.22 3.16.65Zm-4.34 3.7c.14-.28.21-.56.21-.86 0-.88-.66-1.33-1.97-1.33h-12.82l-5.14 10.24h13.37c1.4 0 2.36-.39 2.89-1.18l3.47-6.87Zm29.25-3.69c1.15.54 1.73 1.26 1.73 2.18 0 .29-.06.6-.18.91l-1.06 2.13h-5.5l.76-1.52c.14-.28.21-.55.21-.83 0-.9-.69-1.35-2.06-1.35h-7.93l-6.36 12.7h-5.59l7.48-14.86h15.37c1.15 0 2.2.22 3.13.64Zm28.65.05c1.13.54 1.7 1.27 1.7 2.21 0 .29-.06.61-.18.94l-5.53 11.04h-21.45c-2.59-.01-3.89-.72-3.89-2.14 0-.28.04-.5.12-.66l2.16-4.33c.85-1.69 2.67-2.54 5.47-2.54h17.01l.43-.85c.14-.29.21-.56.21-.8 0-.46-.23-.81-.7-1.05-.39-.2-.85-.3-1.4-.3h-18.23l1.09-2.19h20.08c1.13.01 2.17.23 3.1.67Zm-8.21 11.7 2.52-5.05h-12.94c-.95 0-1.59.04-1.91.13-.61.17-1.07.57-1.4 1.22l-1.25 2.5c-.18.8.35 1.19 1.61 1.2h13.37Zm40.86-12.38-9.15 18.27c-.85 1.22-2.31 2.18-4.38 2.9-1.68.59-3.2.88-4.56.88h-16.77l2.34-2.19h13.79c1.8 0 3.26-.7 4.38-2.12l1.43-2.87h-16.13c-2.41-.01-3.62-.61-3.61-1.81 0-.11.01-.21.03-.3l6.42-12.76 5.47-.02-5.66 11.26c-.02.07-.03.16-.03.25 0 .54.47.85 1.43.94h13.33l6.23-12.42 5.44-.03Z" class="st0"/>
  <path d="m176.58 103.05.69-1.46h3.85c1.17 0 2.19-.66 2.65-1.63.47-1 .07-1.62-1.1-1.62h-5.08l-3.37 7.11h-1.66l4.08-8.61h6.74c2.21 0 2.94 1.2 2.05 3.08a5.503 5.503 0 0 1-4.99 3.14h-3.85Zm15.66 2.39c-2.68 0-3.76-1.9-2.57-4.39 1.2-2.54 3.97-4.22 6.65-4.22h2.33c2.77 0 3.88 1.72 2.7 4.22-1.18 2.5-4.05 4.39-6.78 4.4h-2.33Zm3.05-1.51c1.77 0 3.58-1.2 4.35-2.82s.07-2.78-1.7-2.78h-2.33c-1.71 0-3.52 1.15-4.3 2.78-.77 1.62-.08 2.82 1.65 2.82h2.33Zm13.6 1.51c-2.68 0-3.76-1.89-2.57-4.39 1.2-2.53 3.97-4.22 6.65-4.22h2.33c2.77 0 3.88 1.72 2.7 4.22-1.18 2.5-4.05 4.4-6.78 4.4h-2.33Zm3.04-1.51c1.77 0 3.59-1.2 4.35-2.82.77-1.62.07-2.78-1.7-2.78h-2.33c-1.71 0-3.52 1.15-4.3 2.78-.77 1.62-.08 2.82 1.64 2.82h2.33Zm9.22 1.5 4.08-8.61h1.67l-3.36 7.11h6.44l-.71 1.5h-8.12zm13.2 0 .71-1.5h7.19c.9 0 1.61-.45 1.93-1.13.35-.73.03-1.11-.87-1.11h-4.4c-1.81 0-2.44-1.03-1.76-2.45.66-1.39 2.19-2.42 4.1-2.42h6.88l-.71 1.5h-6.88c-.76 0-1.4.4-1.71 1.05-.31.65-.03 1.04.71 1.04h4.39c1.94 0 2.59.82 1.8 2.49-.68 1.45-2.17 2.52-4.17 2.52h-7.19Z" class="st10"/>
  <path fill="#b0cec9" d="M18.13 110.74c-.3.25-.63.4-.99.44.2 2.03.48 4.07.86 6.11h.51c.06-.81.14-1.62.23-2.43-.19.12-.38.25-.57.37-.11 0-.19.01-.26.01-.22 0-.21-.07-.17-.45.09-1.36.22-2.71.4-4.06m93.84-95.59c-8.8 0-17.69 1.32-26.27 3.82-39.14 10.75-71.47 48.78-68.76 89.9.17-1.47.41-2.93.71-4.38.5-2.07 1.01-4.14 1.51-6.21 1.62-6.8 3.17-13.51 5.66-20.05C29.4 66.21 37.06 55.33 46.2 46.39c9.54-9.33 20.72-16.38 33-21.5 6.79-2.83 14.22-4.86 21.45-6.15 7.7-1.37 15.22-1.64 23.02-1.67.44.1.86.24 1.28.41h.51c.84-.02 1.69-.04 2.53-.05v-.76c-5.24-1.03-10.6-1.52-15.99-1.52"/>
  <path d="M19.51 109.71c-.09.06-.18.11-.26.16l-.12.09c-.12 1.27-.2 2.54-.27 3.82.18-1.36.39-2.72.65-4.06M130.3 26.64c0 .06-.03.11-.08.15.39.09.78.22 1.16.39.18.06.35.12.53.17.08-.09.01-.25-.21-.46a8.9 8.9 0 0 0-.32-.21c-.36-.01-.72-.03-1.07-.04m-6.52-.07c-3.27.04-6.54.22-9.82.58 1.87-.09 3.74-.13 5.61-.13h.79c1.97-.14 3.95-.24 5.94-.32-.84-.05-1.68-.09-2.52-.13" class="st1"/>
  <path d="M19.13 109.96c-.27.2-.53.4-.8.59-.07.07-.13.13-.2.19-.18 1.35-.31 2.7-.4 4.06-.04.38-.05.45.17.45.06 0 .15 0 .26-.01.19-.12.38-.25.57-.37.04-.37.09-.73.13-1.09.06-1.27.15-2.55.27-3.82" class="st2"/>
  <path d="M16.95 108.86c-.09.77-.17 1.55-.22 2.33h.17c.08 0 .16 0 .24-.01-.08-.77-.14-1.55-.19-2.32m115.99-86.3c.2.12.37.26.48.4.07-.08 0-.22-.13-.38-.12 0-.23-.01-.35-.02" class="st1"/>
  <path d="M123.66 17.05c-7.79.03-15.32.3-23.02 1.67-7.23 1.29-14.66 3.32-21.45 6.15-12.28 5.13-23.46 12.18-33 21.5-9.14 8.94-16.81 19.82-21.37 31.83-2.49 6.54-4.04 13.25-5.66 20.05-.5 2.07-1.01 4.14-1.51 6.21-.3 1.45-.54 2.91-.71 4.38.05.77.11 1.55.19 2.32.36-.04.69-.19.99-.44l.09-.63c-.06-.07-.09-.2-.05-.41 1.58-8.7 3.06-17.6 6.05-25.95 1.5-4.19 3.36-8.19 5.54-12.02 1.29-2.64 2.72-5.21 4.29-7.73 4.11-6.59 9.37-12.4 15.16-17.57 5.02-4.96 10.63-9.33 16.7-13.07 9.24-5.7 19.36-9.83 29.88-12.33 3.78-1.01 7.6-1.82 11.48-2.46 5.28-.86 10.52-1.12 15.8-1.12h1.87c-.41-.17-.84-.31-1.28-.41" class="st2"/>
  <path d="M19.25 109.87s-.08.04-.11.06v.02l.12-.09" class="st3"/>
  <path d="M19.13 109.94c-.27.15-.53.25-.71.25-.09 0-.16-.02-.21-.08l-.09.63c.07-.06.14-.12.2-.19l.8-.59v-.02" class="st5"/>
  <path d="M26.66 108.05c-.65.71-1.33 1.4-2.04 2.04-.02.02-.97.85-1.45.85-.04 0-.07 0-.1-.01-.41.4-.83.8-1.24 1.2-.89.88-1.81 1.72-2.77 2.53l-.25.16c-.03.83-.05 1.66-.06 2.48h-.25v.05c.64-.06 1.17-.37 1.58-.93 1.59-1.54 3.13-3.13 4.63-4.76.56-.59 1.12-1.19 1.66-1.79.09-.61.19-1.22.29-1.83" class="st1"/>
  <path d="m18.82 114.81-.09.06a66.5 66.5 0 0 0-.23 2.43h.25c.01-.83.03-1.66.06-2.48" class="st2"/>
  <path d="M23.14 106.86a68.2 68.2 0 0 1-2.64 2.13s-.36.3-.8.6l-.18.12c-.26 1.35-.47 2.7-.65 4.06-.02.35-.03.69-.05 1.04l.25-.16c.95-.81 1.87-1.65 2.77-2.53.42-.4.83-.8 1.24-1.2-.12-.04-.19-.17-.17-.43.04-1.22.12-2.43.23-3.63" class="st3"/>
  <path d="M18.86 113.78c-.05.36-.09.73-.13 1.09l.09-.06c.01-.35.03-.69.05-1.04" class="st5"/>
  <path d="M93.19 35.24C83.4 38 74.11 42.19 65.62 47.82c-4.05 2.69-7.96 5.71-11.59 9.05a90.732 90.732 0 0 0-7.9 9.38c-2.8 4.1-5.2 8.45-7.08 13.03a71.01 71.01 0 0 0-3.85 12.49c-1.01 4.42-1.55 8.9-1.61 13.44-.39.96-.93 1.84-1.62 2.64-.37.51-.74 1.01-1.12 1.51-.08.88-.14 1.76-.2 2.65-.02.29.06.4.19.4.21 0 .57-.3.88-.6.3-.3.56-.6.56-.6v.01c.76-1.01 2.13-2.61 2.18-3.94.28-7.75 1.38-14.68 3.93-21.84 1.77-4.97 4.04-9.73 6.87-14.19 5.55-8.76 13.1-16.65 21.58-22.64 8-5.65 16.69-10.11 25.98-13.24.13-.04.26-.09.4-.13m1.37-2.61c-.69.17-1.38.34-2.07.52-1.97.51-3.92 1.08-5.84 1.71-1.55.65-3.09 1.33-4.61 2.05 1.33-.55 2.67-1.09 4.03-1.59 2.75-1.03 5.6-1.92 8.49-2.69m25.78-5.61c-1.79.13-3.57.29-5.34.49 2.21-.08 4.43-.12 6.66-.12.86 0 1.72 0 2.58.01 1.1.21 2.18.48 3.24.82 1.08.3 2.13.66 3.17 1.08.59.34.76.68.52.87.02 0 .05.01.07.02 2.28.09 4.57.23 6.88.4.42-.07.49-.26.21-.58a7 7 0 0 0-2.31-1.17c-1.37-.53-2.75-1.03-4.14-1.49-.06.07-.2.11-.43.11-3.73-.25-7.41-.43-11.1-.45" class="st1"/>
  <path d="M126.31 26.7c-1.99.08-3.97.18-5.94.32 3.69.02 7.38.19 11.1.45.23 0 .37-.04.43-.11-.18-.06-.35-.12-.53-.17-.38-.16-.77-.29-1.16-.39-.09.07-.27.12-.56.12-.08 0-.17 0-.26-.01-1.03-.07-2.06-.14-3.09-.2" class="st3"/>
  <path d="M31.69 102.07c-.1.1-.2.2-.29.3-.22.24-.45.47-.68.7-.14 1.62-.24 3.23-.3 4.85-.04 1-1.21 2.12-1.85 2.79-.02.02-.79.7-1.2.7-.16 0-.27-.11-.24-.4.06-.72.11-1.44.17-2.14-.3.34-.61.68-.92 1.02-.23 1.52-.44 3.04-.63 4.57-.04.33.03.46.17.46.3 0 .92-.59 1.47-1.19.54-.59 1.01-1.19 1-1.19 0 0-.01.01-.03.04.85-1.05 1.67-2.12 2.48-3.2.21-2.44.49-4.87.85-7.29m19.63-42.62c-3.77 3.79-7.15 7.95-9.96 12.45a86.453 86.453 0 0 0-5.86 11.1c-.13.3-.26.6-.38.89a60.67 60.67 0 0 0-1.37 6.67c-.28 1.32-.51 2.65-.67 3.98 1.56-6.84 3.92-13.47 7.43-19.65 1.71-3.01 3.58-5.9 5.61-8.67 1.6-2.35 3.34-4.61 5.2-6.78M69.5 43.14c-1.06.28-2.11.57-3.13.9-.29.17-.59.35-.88.52-4.8 2.88-9.38 6.32-13.58 10.16-3.2 3.22-6.13 6.71-8.69 10.42-.23.39-.47.78-.69 1.17-.29.5-.58 1.01-.86 1.52 4.09-5.58 8.94-10.63 14.15-15.04 4.29-3.64 8.87-6.84 13.68-9.65m9.55-5.45a98.8 98.8 0 0 0-7.16 3.32c-.76.66-1.5 1.34-2.24 2.05.77-.45 1.54-.88 2.33-1.31 2.31-1.46 4.67-2.81 7.08-4.05m34.91-10.55a96.633 96.633 0 0 0-21.32 3.42c-.56.17-1.13.35-1.69.52 4.04-1.11 8.16-2 12.24-2.57 1.72-.24 3.44-.43 5.15-.59.41-.07.82-.14 1.22-.2 1.47-.23 2.94-.42 4.4-.58m15.97-3.44c.24.11.49.23.73.34h-.01s.03.02.1.05c-.03-.01-.06-.03-.09-.04.14.07 1.37.68 2.41 1.28 1.11.64 2.02 1.29 1.19 1.29h-.14c-1.07-.07-2.13-.14-3.2-.2.15.09.3.18.44.27 2.16.09 4.32.22 6.5.38h.13c.73 0 .04-.58-.83-1.17-.85-.57-1.88-1.14-1.92-1.17-.62-.32-1.25-.64-1.88-.96-.09.13-.22.23-.38.23h-.05c-1.01-.11-2.01-.21-3.02-.3" class="st1"/>
  <path d="M117.26 26.42c-1.22 0-2.45.02-3.67.05l-.94.09c-5.73.56-11.38 1.64-16.93 3.12-1.03.28-2.06.57-3.08.88a96.954 96.954 0 0 1 17.33-3.15c1.33-.12 2.66-.2 3.99-.27 3.28-.35 6.55-.53 9.82-.58-2.18-.1-4.36-.15-6.53-.15m12.93-.04c.08.1.12.19.12.27.36.01.72.03 1.07.04-.15-.09-.29-.18-.44-.27-.25-.01-.5-.03-.75-.04" class="st3"/>
  <path d="M27.47 106.84c-.15.47-.42.87-.81 1.2-.1.61-.19 1.22-.29 1.83.31-.34.61-.68.92-1.02l.18-2.01m.07-.7-.08.08c0 .14.02.29.03.43.02-.17.03-.34.05-.51m24.37-51.43c-1.87 1.71-3.65 3.5-5.35 5.36a80.56 80.56 0 0 0-3.34 5.07c2.56-3.72 5.49-7.2 8.69-10.42m40.73-24.16c-.98.27-1.94.56-2.89.86-.06.02-.13.04-.19.06.46-.13.93-.27 1.4-.4.56-.18 1.12-.35 1.69-.52m30.32-7.38c.43.16.86.31 1.28.47.31.07.63.15.95.25 1.72.13 3.45.28 5.18.45.42.04 1.42.34 1.59.79.11.27-.01.94-.42.94h-.04c-.51-.05-1.01-.11-1.52-.16.32.15.63.31.93.49 1.06.06 2.13.13 3.2.2h.14c.83 0-.08-.64-1.19-1.29-1.05-.61-2.27-1.21-2.41-1.28-.24-.11-.49-.23-.73-.34-2.32-.22-4.64-.4-6.97-.52" class="st3"/>
  <path d="M113.59 26.48c-4.12.12-8.24.47-12.38 1.13-7.06.91-13.64 3.1-19.75 6.58.69-.26 1.38-.51 2.07-.76 1.97-.7 3.99-1.35 6.03-1.95.06-.02.13-.04.19-.06.95-.3 1.92-.59 2.89-.86 1.02-.31 2.05-.6 3.08-.88 5.55-1.49 11.21-2.56 16.93-3.12l.94-.09m16.02-.59c.25.16.45.33.58.49.25.01.5.03.75.04-.3-.18-.61-.34-.93-.49-.13-.01-.26-.03-.4-.04m-12.57-2.86c-1.77 0-3.54.05-5.33.16-1.02.06-2.03.14-3.04.23-1.24.19-2.48.41-3.71.65 1.33-.14 2.65-.25 3.96-.34 1.16-.08 2.32-.14 3.48-.17 1.76-.07 3.47-.09 5.2-.09s3.53.03 5.4.06c.41 0 .83.06 1.25.15-.43-.16-.85-.32-1.28-.47-1.97-.1-3.95-.16-5.93-.16" class="st12"/>
  <path d="M130.66 24.04h.01c.03.01.06.03.09.04-.07-.03-.1-.05-.1-.05" class="st3"/>
  <path d="M135.26 24.74c.03.01.05.03.08.04l-.08-.04" class="st1"/>
  <path d="M46.12 66.25c-2.03 2.77-3.9 5.66-5.61 8.67-3.51 6.18-5.87 12.82-7.43 19.65-.23 1.88-.33 3.78-.31 5.69-.05.73-.58 1.29-1.09 1.81-.36 2.42-.63 4.85-.85 7.29.38-.5.75-1.01 1.12-1.51.68-.8 1.22-1.68 1.62-2.64.06-4.54.6-9.02 1.61-13.44.9-4.28 2.19-8.45 3.85-12.49 1.89-4.57 4.28-8.93 7.08-13.03" class="st3"/>
  <path d="M131.68 22.94c.57.28 1.14.56 1.7.84.13-.2.17-.48.11-.67-.02-.05-.04-.1-.08-.16-.04.05-.14.08-.29.08h-.11l-1.33-.09" class="st1"/>
  <path d="M130.61 22.43c.36.17.71.34 1.07.51l1.33.09h.11c.16 0 .25-.03.29-.08-.1-.14-.28-.28-.48-.4-.78-.05-1.55-.09-2.33-.13" class="st3"/>
  <path d="M127.78 22.72c.72.32 1.44.65 2.16.98 1.01.09 2.01.2 3.02.3h.05c.17 0 .29-.09.38-.23-.57-.28-1.13-.56-1.7-.84-1.3-.09-2.6-.16-3.9-.22" class="st3"/>
  <path d="M126.83 22.3c.32.14.63.28.95.42 1.3.06 2.59.14 3.9.22-.36-.17-.71-.34-1.07-.51-1.26-.06-2.52-.1-3.77-.13" class="st12"/>
  <path d="M121.31 22.55c.4.13.79.28 1.18.45.16.06.33.12.49.18 2.32.12 4.64.31 6.97.52-.72-.33-1.44-.66-2.16-.98-2.16-.1-4.32-.16-6.48-.17" class="st12"/>
  <path d="M120.75 22.55c-2.33 0-4.67.06-7.02.21-1.68.17-3.37.38-5.06.65 1.01-.09 2.03-.17 3.04-.23 1.78-.11 3.55-.16 5.33-.16 1.98 0 3.96.06 5.93.16-.16-.06-.33-.12-.49-.18-.39-.17-.78-.32-1.18-.45h-.55m3.3-.28c-1.18 0-2.36.02-3.54.05.27.07.53.14.8.23 2.16 0 4.31.07 6.48.17-.32-.14-.63-.28-.95-.42-.93-.02-1.85-.03-2.78-.03" class="st17"/>
  <path d="M120.51 22.32c-1.54.05-3.08.13-4.62.24-.71.05-1.43.12-2.15.19 2.35-.14 4.68-.21 7.02-.21h.55c-.26-.09-.53-.16-.8-.23" class="st7"/>
  <path d="M49.2 46.43C43.41 51.59 38.15 57.41 34.04 64c-1.57 2.52-3 5.09-4.29 7.73 1.69-2.98 3.56-5.85 5.6-8.62 1.23-1.68 2.52-3.31 3.86-4.89 2.98-4.24 6.33-8.17 9.99-11.79" class="st5"/>
  <path d="M124.26 23.66c.2.08.4.15.6.23.12 0 .23.02.35.03-.32-.1-.63-.19-.95-.25" class="st12"/>
  <path d="M117.6 23.45c-1.74 0-3.45.02-5.2.09.95-.03 1.91-.04 2.86-.04 3.21 0 6.4.15 9.6.38-.2-.08-.4-.15-.6-.23-.42-.09-.84-.14-1.25-.15-1.87-.03-3.65-.06-5.4-.06" class="st17"/>
  <path d="M125.5 26.56c-.57 0-1.14 0-1.71.01.84.04 1.68.08 2.52.13.84-.03 1.69-.06 2.54-.08.47.01.92.07 1.37.18a.19.19 0 0 0 .08-.15c-1.6-.05-3.2-.08-4.8-.08" class="st3"/>
  <path d="M128.85 26.62c-.85.02-1.7.05-2.54.08 1.03.06 2.06.13 3.09.2.1 0 .18.01.26.01.29 0 .46-.04.56-.12-.45-.11-.91-.17-1.37-.18" class="st12"/>
  <path d="M122.02 26.13c-2.8 0-5.61.1-8.42.34 1.22-.04 2.45-.05 3.67-.05 2.17 0 4.35.05 6.53.15.57 0 1.14-.01 1.71-.01 1.6 0 3.2.03 4.8.08 0-.08-.04-.17-.12-.27-2.73-.14-5.45-.24-8.17-.24" class="st12"/>
  <path d="M115.55 25.08c-1.74 0-3.48.05-5.23.15-5.67.34-11.3 1.18-16.84 2.44-2.05.46-4.08.99-6.09 1.58-7.53 2.97-14.66 6.78-21.34 11.47a78.486 78.486 0 0 0-5.44 4.18c6.5-4.38 13.57-7.96 20.85-10.71 6.11-3.47 12.69-5.67 19.75-6.58 4.15-.66 8.27-1.01 12.38-1.13 2.81-.24 5.62-.34 8.42-.34s5.44.09 8.17.24c-.12-.16-.33-.33-.58-.49-4.69-.46-9.36-.8-14.06-.8" class="st17"/>
  <path d="M71.89 41.01c-1.87.95-3.71 1.96-5.52 3.03 1.02-.32 2.07-.62 3.13-.9l.15-.09c.74-.71 1.49-1.39 2.24-2.05m-52.37 68.67c-.09.07-.18.14-.27.2.09-.05.18-.1.26-.16v-.04" class="st3"/>
  <path d="M29.75 71.72a77.482 77.482 0 0 0-5.54 12.02c-2.99 8.35-4.47 17.25-6.05 25.95-.04.2-.01.33.05.41.38-2.64.92-5.26 1.65-7.85.47-2.22.95-4.43 1.42-6.65 1.09-4.7 2.56-9.48 4.43-14.02.26-.77.54-1.53.84-2.28.93-2.6 2-5.12 3.19-7.58" class="st5"/>
  <path d="M24.34 86.36a88.505 88.505 0 0 0-3.09 10.61 92.87 92.87 0 0 0-2.12 12.96c.04-.02.08-.04.11-.06.09-.07.18-.14.27-.2.35-1.84.78-3.66 1.28-5.48.46-2.21.91-4.42 1.37-6.64.04-.18.08-.36.12-.53.26-2.61.74-5.18 1.45-7.73.17-.98.38-1.96.6-2.93" class="st12"/>
  <path d="M25.72 81.59c-1.88 4.54-3.34 9.32-4.43 14.02-.47 2.22-.95 4.43-1.42 6.65a62.22 62.22 0 0 0-1.65 7.85c.05.06.12.08.21.08.18 0 .44-.1.71-.25.4-4.37 1.1-8.7 2.12-12.96.82-3.62 1.85-7.16 3.09-10.61.38-1.61.84-3.2 1.38-4.77" class="st16"/>
  <path d="M23.14 106.8a98.72 98.72 0 0 1-3.62 2.86v.04l.18-.12c.44-.3.8-.6.8-.6.9-.69 1.78-1.4 2.64-2.13v-.06" class="st12"/>
  <path d="M22.29 97.02c-.04.18-.08.36-.12.53-.46 2.21-.91 4.42-1.37 6.64-.5 1.81-.93 3.64-1.28 5.48 1.23-.93 2.44-1.88 3.62-2.86.07-.74.15-1.49.25-2.23-.05 0-.1.01-.14.01-.22 0-.34-.12-.3-.43.06-.47.12-.93.19-1.4-.29 0-.47-.13-.46-.45v-.12c-.07.01-.14.02-.2.02-.25 0-.44-.13-.41-.52 0-1.57.07-3.13.22-4.68" class="st17"/>
  <path d="M39.21 58.22a87.264 87.264 0 0 0-3.86 4.89 87.591 87.591 0 0 0-5.6 8.62c-1.2 2.46-2.27 4.98-3.19 7.58-.3.75-.58 1.52-.84 2.28.72-1.74 1.5-3.45 2.34-5.11.62-1.22 1.26-2.41 1.93-3.6.41-.84.84-1.67 1.27-2.49 1.97-3.78 4.32-7.36 6.96-10.73.33-.49.66-.97 1-1.45" class="st16"/>
  <path d="M26.82 80.19c-.9 2.02-1.72 4.08-2.47 6.17-.23.97-.43 1.94-.6 2.93a45.75 45.75 0 0 0-1.45 7.73c.59-2.64 1.27-5.3 2.05-7.93.51-2.01 1.02-4.02 1.54-6.02.28-.97.6-1.93.94-2.88" class="st17"/>
  <path d="M29.99 72.89c-.67 1.18-1.31 2.38-1.93 3.6a71.86 71.86 0 0 0-2.34 5.11c-.54 1.57-.99 3.16-1.38 4.77.75-2.09 1.58-4.15 2.47-6.17.9-2.49 2-4.93 3.17-7.3" class="st8"/>
  <path d="M24.34 89.09c-.78 2.63-1.46 5.28-2.05 7.93-.15 1.55-.23 3.11-.22 4.68-.02.39.16.52.41.52.06 0 .13 0 .2-.02.01-4.22.51-8.38 1.5-12.48.05-.21.11-.41.16-.62" class="st7"/>
  <path d="M82.07 36.91c-3.46 1.44-6.83 3.05-10.1 4.83-7.69 4.85-14.76 10.83-20.65 17.72.88-.89 1.78-1.75 2.7-2.6 3.46-3.59 7.23-6.89 11.25-9.88 5.24-3.9 10.88-7.26 16.79-10.07m43.25-6.84c-5.4 0-10.76.34-16.19 1.22-5.42.88-10.73 2.23-15.94 3.96.65-.18 1.31-.36 1.97-.53 5.47-1.43 11.03-2.45 16.66-2.98 2.92-.27 5.83-.38 8.74-.38 4.15 0 8.3.22 12.47.53h.22c.97 0 .97-.54.04-1.02-.67-.25-1.34-.47-2.02-.67h-.1c-.12.08-.31.12-.59.12h-.21c-1.16-.08-2.32-.16-3.47-.23h-1.59" class="st1"/>
  <path d="M131.19 30.17s-.02.01-.02.02h.1c-.02 0-.05-.01-.07-.02m-13.23-.38c-2.92 0-5.84.11-8.77.38-4.93.46-9.81 1.3-14.61 2.46-2.89.77-5.74 1.66-8.49 2.69-1.36.51-2.7 1.04-4.03 1.59-5.91 2.81-11.55 6.17-16.79 10.07-4.03 2.99-7.79 6.3-11.25 9.88 3.63-3.34 7.54-6.36 11.59-9.05 8.49-5.63 17.78-9.82 27.57-12.58 5.2-1.73 10.52-3.08 15.94-3.96 5.43-.88 10.79-1.22 16.19-1.22h1.59c-2.98-.17-5.95-.29-8.93-.29" class="st3"/>
  <path d="M71.97 41.74c-.78.43-1.56.86-2.33 1.31-.02.02-.05.04-.07.07-.03 0-.05.01-.08.02-4.81 2.8-9.38 6-13.68 9.65-5.21 4.42-10.06 9.47-14.15 15.04-2.3 4.19-4.17 8.54-5.67 13.09-.32.99-.61 1.99-.88 3 .12-.3.25-.6.38-.89a83.95 83.95 0 0 1 5.86-11.1c2.81-4.5 6.2-8.66 9.96-12.45 5.89-6.89 12.97-12.87 20.65-17.72" class="st3"/>
  <path d="m69.65 43.05-.15.09c.03 0 .05-.01.08-.02.02-.02.05-.04.07-.07" class="st12"/>
  <path d="m30.72 103.07-.69.69c-.02.44-.05.88-.07 1.32-.01.65-.29 1.19-.82 1.64-.61.72-1.22 1.43-1.85 2.13-.06.71-.12 1.42-.17 2.14-.02.3.08.4.24.4.41 0 1.18-.68 1.2-.7.65-.66 1.82-1.79 1.85-2.79.06-1.61.16-3.23.3-4.85" class="st3"/>
  <path d="M30.03 103.75c-.82.81-1.65 1.6-2.49 2.39-.02.17-.03.34-.05.51v.1c0 .03-.02.06-.03.09l-.18 2.01c.62-.7 1.24-1.41 1.85-2.13.53-.45.81-1 .82-1.64.02-.44.05-.88.07-1.32" class="st12"/>
  <path d="M125.45 17.47c-.15 0-.31 0-.46.01.45.19.88.42 1.29.68.17.09.34.18.5.27 2.12.12 4.25.27 6.39.45-.18-.12-.37-.23-.55-.34a5.19 5.19 0 0 0-2.01-.96c-1.73-.05-3.45-.09-5.16-.12" class="st1"/>
  <path d="M124.94 17.46s.03.01.05.02c.15 0 .31 0 .46-.01h-.51" class="st2"/>
  <path d="M124.99 17.48c-3.77.12-7.53.42-11.27.89 1.91-.11 3.8-.15 5.69-.15 2.46 0 4.91.08 7.37.21-.17-.09-.34-.18-.5-.27-.41-.27-.85-.5-1.29-.68" class="st3"/>
  <path d="M123.07 17.45c-5.28 0-10.53.25-15.8 1.12-3.88.64-7.7 1.45-11.48 2.46 4.9-1.17 9.9-1.98 14.93-2.43 1-.09 2-.16 3-.22 3.74-.47 7.5-.77 11.27-.89-.02 0-.03-.01-.05-.02h-1.87" class="st5"/>
  <path d="M131.99 21.5c.19.13.38.28.56.42.3.23.57.47.73.66 1.39.09 2.79.19 4.19.31h.11c.6 0 .24-.51-.28-1.01-.07-.07-.14-.13-.21-.2-.09.13-.26.2-.52.2h-.16c-1.47-.14-2.95-.26-4.43-.37" class="st1"/>
  <path d="M128.14 21.28c.5.19.99.41 1.46.67l2.34.21c.23.02.65.18 1 .39.12 0 .23.01.35.02a4.99 4.99 0 0 0-.73-.66c-.18-.14-.38-.29-.56-.42-1.28-.09-2.57-.16-3.85-.22" class="st3"/>
  <path d="M120.37 21.16c-1.7.02-3.4.08-5.1.18h2.62c.83-.07 1.65-.13 2.48-.18m3.86 0c.36.15.72.31 1.08.47 1.43.09 2.86.2 4.3.33-.47-.26-.96-.49-1.46-.67-1.3-.06-2.6-.1-3.91-.12" class="st12"/>
  <path d="M122.1 21.15c-.58 0-1.15 0-1.73.01-.83.05-1.65.11-2.48.18 2.47.03 4.94.13 7.42.29-.36-.16-.72-.31-1.08-.47-.71-.01-1.42-.02-2.13-.02M97.74 25c-.87.17-1.74.36-2.61.55.7-.14 1.41-.28 2.11-.4l.5-.15m10.93-1.59c-2.48.23-4.95.55-7.41.95-.84.16-1.68.34-2.51.53 2.07-.34 4.14-.61 6.21-.83 1.23-.24 2.47-.46 3.71-.65" class="st17"/>
  <path d="M101.26 24.36c-1.18.19-2.35.41-3.53.64l-.5.15c.5-.09 1.01-.18 1.52-.26.83-.19 1.67-.36 2.51-.53" class="st7"/>
  <path d="M54.61 49.31c-2.15 1.3-4.17 2.76-6.06 4.36a77.23 77.23 0 0 0-3.79 4.86c1.71-1.84 3.5-3.61 5.33-5.31 1.46-1.35 2.96-2.65 4.52-3.9" class="st12"/>
  <path d="M38.52 70.46c-.06.08-.11.16-.17.24-.83 1.2-1.58 2.44-2.28 3.7-.33.83-.63 1.66-.93 2.5.08-.17.17-.35.25-.52.98-2.02 2.02-3.99 3.12-5.92m4.71-5.32c-.72 1.04-1.4 2.1-2.06 3.18-.28.46-.55.91-.82 1.37.43-.63.87-1.25 1.32-1.86.28-.51.57-1.02.86-1.52l.69-1.17" class="st3"/>
  <path d="M46.56 60.07a81.359 81.359 0 0 0-4.58 5.47c-1.15 1.64-2.3 3.28-3.46 4.92-1.1 1.93-2.15 3.9-3.12 5.92-.08.17-.17.35-.25.52-.57 1.62-1.07 3.27-1.52 4.95.33-.77.68-1.54 1.03-2.3 1.6-3.43 3.52-6.72 5.68-9.86.27-.46.54-.92.82-1.37a66.38 66.38 0 0 1 2.06-3.18 80.56 80.56 0 0 1 3.34-5.07" class="st12"/>
  <path d="M27.52 103.09s-.07.07-.11.1c0 .19-.01.38-.01.57l.12-.67" class="st3"/>
  <path d="M27.78 101.73c-.1.08-.2.15-.3.23-.03.41-.05.82-.07 1.23.04-.03.07-.07.11-.1.08-.45.17-.9.26-1.36" class="st12"/>
  <path d="M27.93 102.72c-.14.12-.27.25-.41.37l-.12.67c-.01.82 0 1.64.06 2.46l.08-.08c.12-1.15.24-2.29.39-3.43" class="st12"/>
  <path d="M28.1 101.49c-.11.08-.21.16-.32.25-.09.45-.17.9-.26 1.36.14-.12.28-.25.41-.37.05-.41.11-.82.17-1.23" class="st17"/>
  <path d="M129.6 21.95s.05.03.07.04c.31.15.62.29.94.44.78.04 1.55.08 2.33.13-.35-.21-.77-.37-1-.39-.78-.07-1.56-.15-2.34-.21" class="st12"/>
  <path d="M116.5 21.33h-1.23c-6.98.4-13.9 1.44-20.59 3.39-3.46 1.01-6.9 2.14-10.26 3.47 4.16-1.45 8.39-2.64 12.71-3.63 2.46-.56 4.93-.99 7.4-1.32 4.43-.99 8.88-1.55 13.36-1.91h-1.39" class="st17"/>
  <path d="M104.53 23.25c-2.47.33-4.94.76-7.4 1.32-4.31.98-8.55 2.18-12.71 3.63-.82.32-1.64.66-2.45 1.01-.04.02-.08.03-.12.05 2.2-.77 4.43-1.48 6.69-2.12 2.15-.61 4.35-1.14 6.58-1.59.87-.19 1.74-.38 2.61-.55 2-.58 4.02-1.1 6.05-1.58.25-.06.49-.11.74-.17" class="st7"/>
  <path d="M125.31 21.63c.51.22 1.02.45 1.53.67 1.26.03 2.52.07 3.77.13-.31-.15-.62-.29-.94-.44-.02-.01-.05-.03-.07-.04-1.43-.12-2.87-.23-4.3-.33" class="st17"/>
  <path d="M113.74 22.76c-.76.05-1.51.1-2.27.17-3.35.28-6.8.77-10.2 1.43 2.46-.4 4.93-.73 7.41-.95 1.69-.26 3.39-.48 5.06-.65" class="st7"/>
  <path d="M117.89 21.34c-4.48.36-8.93.92-13.36 1.91 4.85-.65 9.73-.94 14.66-1.17.45.06.89.14 1.33.25a128.833 128.833 0 0 1 6.32-.02c-.51-.23-1.02-.45-1.53-.67-2.47-.16-4.94-.26-7.42-.29" class="st7"/>
  <path d="M119.18 22.07c-4.93.23-9.8.52-14.66 1.17-.25.05-.49.11-.74.17-2.04.48-4.05 1-6.05 1.58 1.17-.23 2.35-.45 3.53-.64a93.64 93.64 0 0 1 10.2-1.43c.76-.06 1.51-.12 2.27-.17.72-.07 1.44-.14 2.15-.19 1.55-.12 3.09-.2 4.62-.24-.44-.11-.88-.19-1.33-.25" class="st9"/>
  <path d="M80.91 31.4c-3.57 1.32-7.06 2.83-10.48 4.54-2.97 1.7-5.87 3.55-8.69 5.57a81.748 81.748 0 0 0-7.42 6 86.132 86.132 0 0 0-5.78 6.16c1.9-1.6 3.92-3.06 6.06-4.36.56-.45 1.13-.9 1.7-1.33 7.22-6.77 15.66-12.31 24.59-16.58" class="st17"/>
  <path d="M70.43 35.94c-1.5.75-2.98 1.54-4.44 2.36-.75.42-1.5.86-2.25 1.31-2.26 1.65-4.44 3.4-6.54 5.25-.98.87-1.94 1.75-2.88 2.65 2.36-2.15 4.83-4.16 7.42-6 2.82-2.01 5.71-3.87 8.69-5.57m16.96-6.69c-2.19.64-4.35 1.36-6.49 2.15-8.94 4.27-17.37 9.81-24.59 16.58 1.4-1.07 2.83-2.1 4.29-3.08a80.95 80.95 0 0 1 5.44-4.18c6.69-4.69 13.82-8.49 21.34-11.47" class="st7"/>
  <path d="M35.12 83.92c-2.5 6.07-3.82 12.6-4.4 19.15.23-.23.45-.47.68-.7.09-.1.19-.2.29-.3.37-2.52.83-5.02 1.4-7.5.16-1.33.38-2.66.67-3.98.33-2.25.79-4.47 1.37-6.67" class="st3"/>
  <path d="M33.08 94.57c-.56 2.48-1.03 4.98-1.4 7.5.51-.52 1.04-1.08 1.09-1.81-.02-1.91.09-3.81.31-5.69" class="st12"/>
  <path d="M41.67 67.83c-.45.61-.89 1.24-1.32 1.86a89.248 89.248 0 0 0-5.04 10.01c-1.74 4.1-2.88 8.34-3.79 12.64-.14 2.02-.27 4.04-.41 6.06-.04.59-.43.97-.85 1.33-.07 1.34-.15 2.68-.22 4.02l.69-.69c.58-6.54 1.9-13.07 4.4-19.15.27-1 .56-2 .88-3 1.5-4.55 3.36-8.91 5.67-13.09" class="st12"/>
  <path d="m30.25 99.74-.33.27c-.34.29-.68.57-1.03.85v.38c-.07.61-.39 1.09-.95 1.45l-.03.03c-.15 1.14-.28 2.28-.39 3.43.84-.79 1.67-1.58 2.49-2.39.07-1.34.15-2.68.22-4.02m10.11-30.05c-2.16 3.14-4.08 6.43-5.68 9.86-.36.76-.7 1.53-1.03 2.3-.03.13-.07.25-.1.38-.93 3.2-1.6 6.45-1.99 9.77 0 .12-.02.23-.02.35.91-4.31 2.05-8.54 3.79-12.64 1.47-3.45 3.15-6.78 5.04-10.01" class="st17"/>
  <path d="M28.9 100.86c-.26.21-.53.42-.8.63-.06.41-.11.82-.17 1.23l.03-.03c.56-.36.87-.84.95-1.45v-.38" class="st7"/>
  <path d="M115.03 27.51c-2.23.08-4.46.22-6.68.42-7.39 1.26-14.56 3.33-21.5 6.16a92.55 92.55 0 0 0-7.79 3.6c2.5-1.04 5.04-1.99 7.62-2.83 2.45-1.02 4.93-1.95 7.44-2.78 3.38-1.12 6.59-1.95 10.01-2.74 3.64-.83 7.26-1.42 10.89-1.83" class="st1"/>
  <path d="M121.69 27.4c-2.23 0-4.45.03-6.66.12-3.64.41-7.26 1-10.89 1.83-3.43.79-6.63 1.62-10.01 2.74-2.51.83-5 1.76-7.44 2.78 1.93-.63 3.87-1.2 5.84-1.71.69-.18 1.38-.35 2.07-.52 3.61-.96 7.28-1.72 10.91-2.3 6.69-1.06 13.25-1.28 19.98-1.28h1c1.16.19 2.31.45 3.44.77.43.11.85.22 1.28.35.24-.18.07-.53-.52-.87-1.03-.42-2.09-.78-3.17-1.08-1.07-.33-2.15-.61-3.24-.82-.86 0-1.72-.01-2.58-.01" class="st3"/>
  <path d="M108.34 27.93c-1.71.15-3.43.35-5.15.59-4.08.57-8.2 1.45-12.24 2.57-4.29 1.38-8.48 3.03-12.54 4.96a59.053 59.053 0 0 0-6.52 4.96c2.35-1.2 4.73-2.3 7.16-3.32 2.56-1.32 5.16-2.53 7.79-3.6 6.94-2.83 14.11-4.9 21.5-6.16" class="st3"/>
  <path d="M90.95 31.09c-.47.13-.93.26-1.4.4-3.2 1.02-6.33 2.17-9.4 3.47-.59.35-1.17.72-1.74 1.1 4.06-1.93 8.24-3.59 12.54-4.96" class="st12"/>
  <path d="M89.56 31.48c-2.04.59-4.06 1.25-6.03 1.95-.69.24-1.38.5-2.07.76-.44.25-.87.5-1.3.76 3.06-1.29 6.2-2.45 9.4-3.47" class="st17"/>
  <path d="M66.37 44.04c-1.13.36-2.23.74-3.31 1.15-3.93 2.86-7.69 6.04-11.14 9.52 4.19-3.84 8.77-7.27 13.58-10.16.29-.17.58-.35.88-.52" class="st3"/>
  <path d="M63.05 45.19c-1.33.51-2.61 1.06-3.87 1.65a76.408 76.408 0 0 0-4.89 3.93c-2.81 2.91-5.4 6.02-7.74 9.3 1.7-1.86 3.49-3.65 5.35-5.36 3.45-3.48 7.21-6.66 11.14-9.52" class="st12"/>
  <path d="M59.19 46.84c-.61.29-1.21.59-1.81.9-1.05.98-2.08 1.99-3.08 3.03 1.58-1.37 3.21-2.69 4.89-3.93" class="st17"/>
  <path d="M78.41 36.05c-4.41 2.1-8.67 4.54-12.75 7.31-.88.6-1.75 1.21-2.61 1.84 1.08-.41 2.18-.8 3.31-1.15 1.82-1.07 3.66-2.08 5.52-3.03 2.11-1.84 4.28-3.49 6.52-4.96" class="st12"/>
  <path d="M80.16 34.95c-6.99 2.95-13.63 6.63-19.86 11.09-.37.26-.74.53-1.1.8 1.25-.59 2.54-1.15 3.87-1.65a96.57 96.57 0 0 1 15.36-9.15c.58-.38 1.16-.75 1.74-1.1" class="st17"/>
  <path d="M81.46 34.18c-7.28 2.75-14.36 6.33-20.85 10.71-1.1.92-2.17 1.87-3.22 2.85.59-.31 1.2-.61 1.81-.9.37-.27.73-.54 1.1-.8a102.73 102.73 0 0 1 19.86-11.09c.43-.26.86-.52 1.3-.76" class="st7"/>
  <path d="M126.9 30.08c1.16.07 2.31.14 3.47.23h.21c.27 0 .47-.05.59-.12-1.43-.06-2.85-.1-4.27-.11" class="st3"/>
  <path d="M125.48 29.05c-6.74 0-13.29.21-19.98 1.28-3.62.58-7.3 1.34-10.91 2.3 4.81-1.16 9.68-2 14.61-2.46 2.93-.27 5.85-.38 8.77-.38s5.95.11 8.93.29c1.42.02 2.84.06 4.27.11 0 0 .02-.01.02-.02-.42-.12-.85-.24-1.28-.35-1.13-.32-2.28-.58-3.44-.77h-1M47.66 57.24a81.968 81.968 0 0 0-9.97 13.37c-.58 1.25-1.12 2.51-1.62 3.79.69-1.27 1.45-2.5 2.28-3.7.06-.08.11-.16.17-.24 2.68-4.67 5.73-9.07 9.14-13.22" class="st12"/>
  <path d="M55.41 48.83c-.27.16-.54.32-.8.48a84.259 84.259 0 0 0-4.52 3.9c-1.83 1.7-3.61 3.47-5.33 5.31a73.817 73.817 0 0 0-6.8 11.53c-.09.18-.17.37-.26.56a81.54 81.54 0 0 1 9.97-13.37c2.16-2.62 4.46-5.15 6.9-7.57.28-.28.57-.56.85-.84" class="st17"/>
  <path d="M54.3 50.77a82.739 82.739 0 0 0-6.64 6.47 96.245 96.245 0 0 0-9.14 13.22c1.15-1.64 2.3-3.28 3.46-4.92 1.44-1.88 2.97-3.71 4.58-5.47 2.34-3.28 4.93-6.39 7.74-9.3" class="st17"/>
  <path d="M57.38 47.74c-.67.35-1.32.71-1.97 1.09-.29.28-.57.55-.85.84a102.42 102.42 0 0 0-6.9 7.57c2.09-2.28 4.31-4.44 6.64-6.47 1-1.04 2.03-2.05 3.08-3.03m-1.07.24c-.57.44-1.14.88-1.7 1.33.27-.16.53-.32.8-.48.3-.29.6-.57.9-.86" class="st7"/>
  <path d="M60.61 44.89c-1.46.99-2.9 2.01-4.29 3.08-.3.28-.6.57-.9.86.65-.38 1.3-.74 1.97-1.09a86.29 86.29 0 0 1 3.22-2.85" class="st9"/>
  <path d="M26.82 107.05c-.27.36-.62.69-.91 1-.92.99-1.87 1.94-2.84 2.88.03 0 .06.01.1.01.48 0 1.43-.84 1.45-.85.71-.65 1.39-1.33 2.04-2.04.05-.33.11-.67.16-1" class="st3"/>
  <path d="m23.56 106.5-.42.36c-.11 1.21-.19 2.42-.23 3.63-.02.26.05.39.17.43.97-.94 1.92-1.89 2.84-2.88.29-.31.64-.64.91-1 .01-.09.03-.18.04-.27-.73.69-1.48 1.35-2.25 1.99-.3.19-.6.37-.9.56h-.23c-.24 0-.25-.06-.19-.45.07-.8.16-1.59.26-2.38" class="st12"/>
  <path d="M27.46 106.22s-.07.07-.11.1c-.07.07-.14.13-.21.2-.08.19-.2.36-.32.53-.06.33-.11.67-.16 1 .39-.33.66-.73.81-1.2 0-.06.01-.12.02-.19l-.03-.43" class="st12"/>
  <path d="M27.15 106.52c-.09.09-.18.18-.28.26-.02.09-.03.18-.04.27.13-.17.24-.34.32-.53m-3.59-.06c-.11.09-.22.18-.33.26-.03.03-.06.05-.09.08v.06l.42-.36v-.04" class="st17"/>
  <path d="M23.85 104.42c-.17.08-.33.13-.46.16-.1.74-.18 1.48-.25 2.23.03-.03.06-.05.09-.08.11-.09.22-.18.33-.26.09-.68.18-1.36.29-2.04" class="st7"/>
  <path d="M27.49 106.65c0 .06-.01.12-.02.19 0-.03.02-.06.03-.09v-.1" class="st17"/>
  <path d="M27.41 103.19s-.06.06-.1.09l-.03 1.09c.04-.2.07-.4.11-.61 0-.19 0-.38.01-.57" class="st12"/>
  <path d="M27.32 103.27c-.89.8-1.8 1.58-2.72 2.35-.23.23-.48.45-.75.64-.09.08-.19.16-.28.25-.1.79-.19 1.58-.26 2.38-.05.39-.05.45.19.45h.23c.3-.19.6-.37.9-.56.77-.64 1.52-1.3 2.25-1.99l.42-2.42c0-.36.01-.73.03-1.09" class="st17"/>
  <path d="M27.48 101.96s-.06.05-.09.07c-.03.41-.05.83-.07 1.25.03-.03.06-.06.1-.09.01-.41.04-.82.07-1.23" class="st17"/>
  <path d="M27.39 102.03c-.31.23-.62.46-.94.69-.1.07-.51.39-1.02.75-.02.37-.04.74-.05 1.12-.22.38-.48.72-.78 1.03.92-.77 1.83-1.55 2.72-2.35.02-.42.04-.83.07-1.25" class="st7"/>
  <path d="M27.4 103.76c-.04.2-.07.4-.11.61 0 .51 0 1.02.01 1.53-.01.22-.07.43-.16.62.07-.07.14-.13.21-.2.04-.03.07-.07.11-.1-.05-.82-.07-1.64-.06-2.46" class="st17"/>
  <path d="M27.29 104.36c-.14.8-.28 1.61-.42 2.42.09-.09.19-.17.28-.26.09-.2.14-.4.16-.62-.01-.51-.02-1.02-.01-1.53m-2.71 1.25c-.34.28-.69.57-1.03.84v.04c.09-.08.19-.16.28-.25.27-.19.53-.41.75-.64" class="st7"/>
  <path d="M25.42 103.47c-.5.35-1.09.73-1.57.95-.11.68-.2 1.36-.29 2.04.35-.28.69-.56 1.03-.84.3-.31.56-.65.78-1.03.01-.37.03-.74.05-1.12" class="st9"/>
  <path d="M133.17 18.88c1.01.64 1.99 1.3 2.96 1.99l.03.02s-.02-.01-.02-.02c.05.04.52.4.97.81.1-.15.08-.37-.08-.67-.34-.65-2.21-1.99-2.95-2.06-.3-.03-.6-.05-.9-.08" class="st1"/>
  <path d="M95.79 21.02c-10.53 2.5-20.64 6.63-29.88 12.33-6.07 3.74-11.68 8.11-16.7 13.07 1.08-.96 2.17-1.9 3.28-2.82 3.59-2.97 7.44-5.64 11.49-8.02 7.7-5.33 16.27-9.5 25.06-12.5 2.24-.76 4.49-1.45 6.75-2.05" class="st5"/>
  <path d="M63.97 35.58c-4.05 2.38-7.9 5.06-11.49 8.02-1.11.92-2.21 1.86-3.28 2.82a86.732 86.732 0 0 0-9.99 11.79 89.59 89.59 0 0 1 7.31-7.65 90.3 90.3 0 0 1 4.28-3.81c1.3-1.32 2.63-2.62 4.01-3.88 2.87-2.63 5.94-5.07 9.16-7.29" class="st16"/>
  <path d="M46.52 50.56a89.59 89.59 0 0 0-7.31 7.65c-.34.48-.67.96-1 1.45 2.53-3.24 5.32-6.28 8.31-9.1" class="st8"/>
  <path d="M126.78 18.43c1.41.76 2.81 1.55 4.18 2.38h-.01s.02.01.06.04c-.01 0-.03-.02-.04-.03.08.05.53.34 1.03.69 1.48.1 2.96.23 4.43.37h.16c.25 0 .43-.07.52-.2-.44-.41-.92-.77-.97-.81-.97-.69-1.96-1.35-2.96-1.99-2.14-.18-4.27-.33-6.39-.45" class="st3"/>
  <path d="M130.95 20.8h.01c.01 0 .03.02.04.03-.04-.02-.06-.04-.06-.04m-11.53-2.57c-1.89 0-3.79.05-5.69.15-2.06.26-4.12.58-6.16.95-10.34 1.71-20.45 4.98-29.92 9.58 3.1-1.24 6.25-2.32 9.43-3.26 3.24-1.14 6.54-2.14 9.88-3 7.48-1.94 15.03-2.62 22.71-3.16 1.35.3 2.64.76 3.88 1.38.08.03.15.06.23.1.94-.05 1.88-.09 2.83-.13.53.11 1.05.26 1.55.45 1.29.06 2.57.13 3.85.22-.49-.35-.94-.64-1.03-.69-1.38-.82-2.77-1.62-4.18-2.38-2.46-.13-4.91-.21-7.37-.21" class="st12"/>
  <path d="M113.72 18.37c-1 .06-1.99.13-3 .22-5.04.45-10.03 1.27-14.93 2.43-2.27.61-4.52 1.29-6.75 2.05-8.79 3-17.36 7.17-25.06 12.5 4.37-2.57 8.95-4.8 13.66-6.68 9.47-4.6 19.58-7.87 29.92-9.58 2.05-.37 4.1-.69 6.16-.95" class="st16"/>
  <path d="M119.66 19.49c-7.68.54-15.23 1.22-22.71 3.16-3.35.87-6.64 1.86-9.88 3 .84-.25 1.68-.48 2.52-.71 6.69-1.79 13.85-3.04 20.77-3.44 1.65-.1 3.29-.15 4.92-.17 1.7-.1 3.4-.15 5.1-.18 1.13-.07 2.26-.14 3.39-.19-.08-.03-.15-.06-.23-.1a16.77 16.77 0 0 0-3.88-1.38" class="st17"/>
  <path d="M126.59 20.83c-.94.04-1.89.08-2.83.13.16.07.31.13.47.2 1.31.02 2.61.06 3.91.12-.5-.19-1.02-.34-1.55-.45" class="st17"/>
  <path d="M123.76 20.96c-1.13.06-2.26.12-3.39.19.58 0 1.15-.01 1.73-.01.71 0 1.42 0 2.13.02-.16-.07-.31-.13-.47-.2" class="st7"/>
  <path d="M87.06 25.65c-3.18.93-6.33 2.02-9.43 3.26a112.47 112.47 0 0 0-22.31 14.3l.36-.27c7.25-5.85 15.4-10.64 23.88-14.35 2.47-1.08 4.97-2.06 7.49-2.95" class="st17"/>
  <path d="M77.63 28.9a100.34 100.34 0 0 0-13.66 6.68 86.143 86.143 0 0 0-9.16 7.29 97.987 97.987 0 0 0-4.01 3.88c1.48-1.23 2.99-2.42 4.52-3.55 6.82-5.62 14.34-10.43 22.31-14.3" class="st8"/>
  <path d="M115.27 21.34c-1.64.02-3.27.07-4.92.17-6.92.4-14.08 1.65-20.77 3.44-.84.22-1.68.46-2.52.71-2.53.89-5.03 1.87-7.49 2.95-8.47 3.7-16.63 8.5-23.88 14.35.02-.02.05-.03.07-.05 6.49-4.73 13.43-8.56 20.75-11.59 1.19-.52 2.38-1.02 3.58-1.49 1.44-.57 2.88-1.11 4.33-1.61 3.36-1.33 6.8-2.46 10.26-3.47 6.69-1.95 13.62-2.99 20.59-3.39" class="st7"/>
  <path d="M84.42 28.19c-1.45.51-2.9 1.04-4.33 1.61-1.2.48-2.39.97-3.58 1.49 1.76-.73 3.54-1.41 5.34-2.04.04-.02.08-.03.12-.05.81-.35 1.63-.69 2.45-1.01" class="st9"/>
  <path d="M136.13 20.87s.02.01.02.02c-.02-.01-.03-.02-.03-.02" class="st3"/>
  <path d="M32.52 73.15a33.528 33.528 0 0 0-2.81 7.15c.83-2.43 1.76-4.83 2.81-7.15" class="st9"/>
  <path d="M48.55 53.67c-.43.37-.86.74-1.28 1.13-1.84 2.15-3.57 4.4-5.18 6.72.87-1.02 1.76-2.02 2.68-2.99a77.23 77.23 0 0 1 3.79-4.86" class="st17"/>
  <path d="M47.26 54.8c-2.44 2.22-4.66 4.7-6.67 7.45-2.82 3.69-5.25 7.61-7.34 11.73 2.51-4.43 5.5-8.58 8.82-12.45a82.22 82.22 0 0 1 5.18-6.72m7.07-7.3c-2.5 2.28-4.86 4.72-7.06 7.29.42-.38.85-.76 1.28-1.13 1.81-2.15 3.74-4.2 5.78-6.16" class="st7"/>
  <path d="M63.74 39.61c-8.44 5.09-16.2 11.77-22.32 19.43-3.17 3.96-5.9 8.25-8.2 12.76a78.914 78.914 0 0 0-3.2 8c-.25.77-.48 1.55-.7 2.33.41-.99.84-1.99 1.3-2.98.81-1.77 1.69-3.49 2.65-5.18 2.09-4.11 4.52-8.04 7.34-11.73 2-2.75 4.22-5.23 6.67-7.45 2.2-2.57 4.56-5.01 7.06-7.29a91.584 91.584 0 0 1 9.42-7.9" class="st9"/>
  <path d="M33.22 71.8c-.14.28-.28.55-.42.83-.1.17-.19.35-.28.52a80.346 80.346 0 0 0-2.81 7.15c-.17.66-.33 1.32-.46 1.99.02-.06.05-.11.07-.17.22-.78.45-1.56.7-2.33.92-2.73 2-5.39 3.2-8" class="st14"/>
  <path d="M31.71 85.59c-.58 1.21-1.1 2.43-1.55 3.68-.13.72-.25 1.43-.36 2.16-.22 1.02-.4 2.05-.54 3.09.66-2.97 1.47-5.97 2.45-8.92m4.37-11.2a42.637 42.637 0 0 0-3.85 9.66c.86-2.45 1.83-4.85 2.92-7.16.29-.84.6-1.67.93-2.5" class="st12"/>
  <path d="M30.16 89.27c-.93 2.57-1.58 5.21-1.94 7.93-.37 1.58-.62 3.16-.73 4.77.1-.07.2-.15.3-.23.42-2.2.87-4.39 1.34-6.59.05-.21.09-.42.14-.64.14-1.03.32-2.06.54-3.09.11-.72.23-1.44.36-2.16" class="st17"/>
  <path d="M35.15 76.9c-1.09 2.3-2.06 4.71-2.92 7.16-.09.32-.17.64-.25.97-.09.19-.18.37-.27.56a93.81 93.81 0 0 0-2.45 8.92c-.05.39-.1.79-.14 1.18 1.04-4.77 2.57-9.36 4.51-13.84.45-1.68.96-3.32 1.52-4.95" class="st17"/>
  <path d="M29.26 94.51c-.05.21-.09.43-.14.64-.47 2.19-.92 4.39-1.34 6.59.11-.08.22-.16.32-.25.16-1.16.35-2.34.57-3.52.14-.76.29-1.52.45-2.28.04-.39.09-.79.14-1.18" class="st7"/>
  <path d="M31.51 92.35c-.44 2.07-.82 4.16-1.2 6.25l-.06 1.14c.43-.36.81-.74.85-1.33.14-2.02.27-4.04.41-6.06" class="st17"/>
  <path d="M33.63 81.85c-1.94 4.47-3.47 9.06-4.51 13.84a42.41 42.41 0 0 0-.22 5.17c.35-.28.69-.56 1.03-.85l.33-.27.06-1.14c.38-2.1.76-4.18 1.2-6.25 0-.12.02-.23.02-.35.39-3.31 1.06-6.57 1.99-9.77.03-.13.07-.25.1-.38" class="st7"/>
  <path d="M29.12 95.69c-.16.75-.31 1.51-.45 2.28-.22 1.19-.4 2.36-.57 3.52.27-.21.54-.41.8-.63-.03-1.74.04-3.46.22-5.17" class="st9"/>
  <path d="M23.67 102.67c-.2.06-.38.1-.53.1-.06.47-.13.93-.19 1.4-.04.31.08.43.3.43.04 0 .09 0 .14-.01.08-.64.18-1.28.28-1.91" class="st7"/>
  <path d="M24.19 102.46c-.18.09-.36.16-.52.21-.1.64-.19 1.27-.28 1.91.13-.02.29-.08.46-.16.1-.66.22-1.31.34-1.97" class="st9"/>
  <path d="M37.7 70.61c-.27.45-.53.91-.79 1.36-2.23 3.92-4.06 7.99-5.57 12.22-.47 1.68-.86 3.37-1.18 5.07.45-1.24.97-2.47 1.55-3.68.17-.51.34-1.02.52-1.53.9-3.4 2.18-6.62 3.85-9.66.5-1.27 1.04-2.53 1.62-3.79" class="st17"/>
  <path d="M44.76 58.53c-.91.98-1.81 1.98-2.68 2.99a80.28 80.28 0 0 0-3.67 5.83c-2.67 4.68-4.77 9.56-6.43 14.68-.23.72-.45 1.44-.65 2.17 1.51-4.23 3.34-8.29 5.57-12.22.26-.46.52-.91.79-1.36.09-.19.17-.37.26-.56 1.93-4.08 4.21-7.92 6.8-11.53M31.33 84.19c-.3.84-.59 1.69-.86 2.55-.98 3.17-1.73 6.4-2.24 9.67-.42 1.86-.7 3.73-.84 5.62.03-.02.06-.05.09-.07.12-1.6.36-3.19.73-4.77.37-2.72 1.01-5.36 1.94-7.93.32-1.71.71-3.4 1.18-5.07" class="st7"/>
  <path d="M42.08 61.52c-3.32 3.87-6.31 8.03-8.82 12.45-.81 1.59-1.56 3.2-2.27 4.84a69.88 69.88 0 0 0-2.14 5.93c0 .06-.01.12-.02.18-.04.1-.08.19-.12.29-.21.68-.4 1.36-.59 2.04-.14.76-.27 1.52-.39 2.28-.75 3.21-1 6.48-.75 9.79 0 .34-.39.73-.9 1.1 0 .11.01.23.02.34 0 .22-.22.51-.54.8-.05.64-.09 1.28-.13 1.92.51-.36.93-.68 1.02-.75.31-.23.63-.46.94-.69.14-1.89.42-3.76.84-5.62.51-3.28 1.26-6.5 2.24-9.67.27-.86.56-1.7.86-2.55.2-.72.42-1.45.65-2.17 1.66-5.12 3.76-10 6.43-14.68a80.28 80.28 0 0 1 3.67-5.83" class="st9"/>
  <path d="M32.23 84.06c-.18.51-.35 1.02-.52 1.53.09-.19.18-.37.27-.56.08-.32.16-.65.25-.97" class="st7"/>
  <path d="M28.12 87.25c-.37 1.35-.69 2.72-.98 4.1-.44 1.9-.8 3.81-1.08 5.73-.05 1.1-.04 2.21.02 3.33.51-.37.89-.75.9-1.1-.25-3.32 0-6.58.75-9.79.12-.76.25-1.52.39-2.28m-2.57 14.32c-.37.33-.88.67-1.36.9-.12.65-.23 1.31-.34 1.97.48-.22 1.07-.6 1.57-.95.03-.64.08-1.28.13-1.92m3.16-16.36-.36.9c-.08.38-.16.76-.23 1.15.19-.68.38-1.37.59-2.04m4.55-11.24c-.96 1.69-1.84 3.41-2.65 5.18-.45.99-.89 1.98-1.3 2.98-.04.15-.08.31-.13.46-.14.71-.25 1.43-.34 2.15.62-2 1.34-3.98 2.14-5.93.71-1.64 1.46-3.25 2.27-4.84" class="st14"/>
  <path d="M28.35 86.1c-1.37 3.57-2.14 7.23-2.29 10.98.28-1.92.64-3.83 1.08-5.73.29-1.38.61-2.75.98-4.1.07-.38.15-.77.23-1.15m.97-3.97c-.02.06-.05.11-.07.17l-.06.29c.04-.15.08-.31.13-.46" class="st15"/>
  <path d="M112.4 23.54c-1.15.03-2.31.09-3.48.17-1.31.09-2.63.2-3.96.34-.25.05-.5.1-.74.15 1.4-.18 2.81-.33 4.23-.44 1.36-.1 2.67-.18 3.95-.23" class="st17"/>
  <path d="M125.21 23.91c1.19.38 2.37.95 3.43 1.46.47.16.93.34 1.37.55.51.05 1.01.1 1.52.16h.04c.41 0 .53-.66.42-.94-.18-.45-1.17-.75-1.59-.79-1.74-.16-3.46-.32-5.18-.45" class="st12"/>
  <path d="M128.63 25.38c.18.09.36.18.54.26.15.07.3.16.44.24.13.01.26.03.4.04-.44-.21-.9-.39-1.37-.55m-3.78-1.49c1.26.48 2.52.97 3.76 1.49h.01c-1.05-.51-2.24-1.09-3.43-1.46-.12 0-.23-.02-.35-.03" class="st17"/>
  <path d="M115.25 23.5c-.95 0-1.9.01-2.86.04-1.29.05-2.6.12-3.95.23-1.42.11-2.83.26-4.23.44-2.94.6-5.84 1.33-8.62 2.18-2.78.85-5.52 1.81-8.2 2.87 2.01-.59 4.04-1.12 6.09-1.58 5.54-1.26 11.16-2.1 16.84-2.44 1.75-.1 3.49-.15 5.23-.15 4.7 0 9.37.34 14.06.8a3.09 3.09 0 0 0-.44-.24c-.18-.08-.36-.17-.54-.26h-.01c-1.25-.51-2.5-1.01-3.76-1.49-3.21-.23-6.39-.38-9.6-.38m-18.02 1.62c-.71.13-1.41.26-2.11.4-.12.03-.24.05-.37.08-3.13.71-6.22 1.56-9.26 2.55 3.14-.99 6.33-1.81 9.56-2.44l.61-.12c.52-.16 1.04-.32 1.56-.47m7.73-1.09c-2.07.22-4.14.49-6.21.83-.99.22-1.97.46-2.94.7 2.79-.54 5.59-1.02 8.4-1.39.25-.05.5-.1.74-.15" class="st7"/>
  <path d="M98.75 24.88c-.51.08-1.01.17-1.52.26-.52.15-1.04.31-1.56.47.05 0 .09-.02.14-.03.97-.25 1.95-.48 2.94-.7m-3.62.67c-2.23.45-4.43.98-6.58 1.59-2.26.64-4.49 1.35-6.69 2.12-.62.27-1.24.54-1.85.83 1.81-.69 3.65-1.32 5.5-1.9 3.04-.99 6.12-1.84 9.26-2.55.12-.03.24-.05.37-.08" class="st9"/>
  <path d="M95.5 25.67c-1.46.38-2.89.79-4.29 1.23-7.28 2.29-14.22 5.29-20.77 9.04 3.41-1.71 6.91-3.23 10.48-4.54a107.9 107.9 0 0 1 14.6-5.73" class="st7"/>
  <path d="m95.67 25.62-.61.12c-3.23.63-6.42 1.46-9.56 2.44a97.04 97.04 0 0 0-6.62 2.43 93.637 93.637 0 0 0-15.15 9c.74-.45 1.49-.89 2.25-1.31 1.46-.82 2.94-1.61 4.44-2.36 6.56-3.75 13.5-6.74 20.77-9.04 1.4-.44 2.84-.85 4.29-1.23l.18-.06" class="st9"/>
  <path d="M104.22 24.2c-2.82.36-5.61.85-8.4 1.39-.11.03-.21.05-.32.08a107.9 107.9 0 0 0-14.6 5.73c2.14-.79 4.3-1.5 6.49-2.15 2.68-1.06 5.42-2.01 8.2-2.87 2.78-.85 5.68-1.58 8.62-2.18" class="st9"/>
  <path d="m95.81 25.59-.14.03-.18.06c.11-.03.21-.06.32-.08M85.5 28.18c-1.85.58-3.68 1.22-5.5 1.9-.37.17-.75.35-1.12.52 2.18-.89 4.38-1.7 6.62-2.43" class="st14"/>
  <path d="M23.25 102c-.18.08-.38.16-.57.2v.12c-.02.32.17.45.46.45.04-.26.07-.51.11-.77" class="st7"/>
  <path d="M38.22 59.67c-2.63 3.37-4.98 6.95-6.96 10.73-.43.82-.85 1.65-1.27 2.49 1.46-2.6 3.04-5.11 4.73-7.54.48-.86.98-1.71 1.49-2.55a92.5 92.5 0 0 1 2.01-3.13" class="st8"/>
  <path d="M33.16 68.28a96.26 96.26 0 0 0-6.34 11.91c-.35.95-.66 1.91-.94 2.88-.51 2.01-1.02 4.02-1.54 6.02 1.12-3.75 2.46-7.45 4.08-10.96.78-1.68 1.6-3.34 2.46-4.96a83.1 83.1 0 0 1 2.27-4.89" class="st7"/>
  <path d="M34.72 65.35a95.49 95.49 0 0 0-4.73 7.54c-1.18 2.38-2.27 4.82-3.17 7.3 1.83-4.12 3.95-8.1 6.34-11.91.5-.99 1.02-1.97 1.56-2.94" class="st13"/>
  <path d="M30.88 73.18c-.86 1.62-1.69 3.28-2.46 4.96-1.62 3.51-2.96 7.21-4.08 10.96-.05.21-.11.41-.16.62-.99 4.1-1.49 8.26-1.5 12.48.19-.04.39-.12.57-.2 1.42-9.89 3.73-19.67 7.64-28.82" class="st9"/>
  <path d="M50.81 46.76a90.3 90.3 0 0 0-4.28 3.81c1.31-1.22 2.65-2.4 4.02-3.54.09-.09.18-.18.26-.27" class="st8"/>
  <path d="M23.83 101.7s-.07.04-.1.05c-.1.05-.28.15-.49.25-.04.26-.07.51-.11.77.15 0 .33-.04.53-.1.05-.32.11-.65.16-.97m13.66-37.86c-.85 1.35-1.63 2.7-2.34 4.05-.03.06-.06.12-.1.19.78-1.44 1.59-2.85 2.43-4.23" class="st9"/>
  <path d="m47.4 50.41-1.5 1.53c.38-.38.76-.76 1.15-1.14.11-.13.23-.26.34-.39" class="st7"/>
  <path d="M50.54 47.03a95.954 95.954 0 0 0-4.02 3.54c-2.98 2.83-5.78 5.87-8.31 9.1a92.5 92.5 0 0 0-2.01 3.13c-.51.84-1.01 1.69-1.49 2.55 3.32-4.78 7.05-9.24 11.19-13.4.49-.52.99-1.03 1.5-1.53 1.02-1.15 2.06-2.28 3.14-3.39" class="st13"/>
  <path d="M47.06 50.81c-.39.38-.77.76-1.15 1.14-4.79 5.01-9.08 10.48-12.75 16.34a83.1 83.1 0 0 0-2.27 4.89c4.18-7.85 9.35-15.01 15.45-21.53l.72-.84" class="st9"/>
  <path d="M45.91 51.95a99.132 99.132 0 0 0-11.19 13.4c-.54.97-1.06 1.95-1.56 2.94 3.67-5.86 7.96-11.33 12.75-16.34" class="st4"/>
  <path d="M46.33 51.64c-6.1 6.52-11.27 13.68-15.45 21.53-3.9 9.15-6.22 18.93-7.64 28.82.21-.1.39-.2.49-.25.03-.02.06-.03.1-.05.22-1.23.47-2.46.76-3.68.51-3.32 1.33-6.56 2.46-9.72.43-1.34.89-2.64 1.38-3.94.39-1.36.82-2.71 1.27-4.05a32.81 32.81 0 0 1 2.81-7.15c.43-.96.88-1.9 1.35-2.83.38-.76.78-1.51 1.18-2.26.03-.06.06-.12.1-.19.7-1.35 1.49-2.7 2.34-4.05 2.63-4.31 5.58-8.37 8.85-12.19" class="st14"/>
  <path d="m55.69 42.94-.36.27c-.33.28-.67.55-1 .83.08-.06.16-.12.23-.17.37-.31.75-.62 1.13-.92" class="st7"/>
  <path d="M55.33 43.21a90.365 90.365 0 0 0-4.52 3.55c-.09.09-.18.18-.26.27a99.51 99.51 0 0 1 3.79-2.99c.33-.28.66-.56 1-.83" class="st13"/>
  <path d="M76.51 31.3c-7.32 3.03-14.26 6.86-20.75 11.59-.02.02-.05.03-.07.05-.38.3-.75.61-1.13.92 4.38-3.26 9.04-6.15 13.92-8.66 2.63-1.41 5.31-2.72 8.03-3.9" class="st9"/>
  <path d="M81.86 29.25c-1.8.63-3.58 1.32-5.34 2.04-2.72 1.19-5.4 2.49-8.03 3.9a110.45 110.45 0 0 1 11.52-5.12c.61-.28 1.23-.56 1.85-.83" class="st14"/>
  <path d="M78.88 30.6a98.054 98.054 0 0 0-15.09 7.73c-4.62 2.89-8.92 6.16-12.98 9.79-4.91 4.39-9.71 9.98-13.33 15.72-.85 1.39-1.66 2.8-2.43 4.23a85.79 85.79 0 0 0-1.83 3.73c2.3-4.52 5.03-8.8 8.2-12.76 6.13-7.66 13.88-14.34 22.32-19.43 4.75-3.47 9.83-6.48 15.15-9" class="st14"/>
  <path d="M54.56 43.86c-.08.06-.16.12-.23.17-2.4 2.03-4.72 4.15-6.93 6.38-.11.13-.23.26-.34.39.34-.33.68-.66 1.03-.99 2.06-2.09 4.22-4.07 6.48-5.95" class="st9"/>
  <path d="M54.33 44.04a90.42 90.42 0 0 0-3.79 2.99c-1.07 1.11-2.12 2.24-3.14 3.39 2.21-2.22 4.53-4.35 6.93-6.38" class="st4"/>
  <path d="M48.08 49.82c-.34.33-.69.66-1.03.99l-.72.84c.43-.46.87-.92 1.32-1.38.14-.15.29-.3.43-.44m20.4-14.63a100.55 100.55 0 0 0-13.92 8.66 91.344 91.344 0 0 0-6.48 5.95l.05-.05c6.05-5.74 12.98-10.6 20.35-14.57" class="st14"/>
  <path d="M29.71 80.31c-.46 1.34-.88 2.69-1.27 4.05.26-.69.53-1.37.81-2.06.13-.67.29-1.33.46-1.99m5.34-12.24c-.4.75-.8 1.5-1.18 2.26-.47.93-.92 1.87-1.35 2.83.09-.17.19-.35.28-.52.14-.28.28-.55.42-.83.58-1.26 1.19-2.5 1.83-3.73m44.95-38c-2.87 1.09-5.69 2.3-8.45 3.6-1.03.49-2.06 1-3.07 1.52-7.38 3.97-14.3 8.83-20.35 14.57l-.05.05c-.15.15-.29.3-.43.44l-1.32 1.38a94.022 94.022 0 0 0-8.85 12.19c3.62-5.74 8.43-11.33 13.33-15.72 4.06-3.63 8.36-6.9 12.98-9.79 4.82-3.02 9.86-5.6 15.09-7.73.37-.18.75-.35 1.12-.52" class="st15"/>
  <path d="M24.39 101.41c-.23.12-.42.21-.56.29-.06.32-.11.65-.16.97.17-.05.34-.13.52-.21.07-.35.13-.7.2-1.05" class="st14"/>
  <path d="M28.43 84.36c-.49 1.29-.95 2.6-1.38 3.94-1.12 3.16-1.94 6.4-2.46 9.72-.29 1.22-.55 2.45-.76 3.68.14-.07.34-.17.56-.29.34-1.69.74-3.36 1.21-5.02.48-2.22.96-4.44 1.43-6.67.41-1.78.88-3.58 1.4-5.37" class="st15"/>
  <path d="M26.08 100.41c-.14.1-.3.2-.45.3-.03.28-.05.56-.07.84.32-.29.54-.58.54-.8 0-.11-.01-.23-.02-.34m2.77-15.67c-.05.15-.1.31-.14.46.04-.1.08-.19.12-.29 0-.06.01-.12.02-.18" class="st14"/>
  <path d="M26.06 97.08c-.18 1.21-.32 2.42-.43 3.64.16-.1.31-.2.45-.3-.06-1.12-.07-2.23-.02-3.33m-.44 3.63c-.42.26-.86.5-1.23.69-.07.35-.14.7-.2 1.05.49-.23.99-.57 1.36-.9.02-.28.05-.56.07-.84m3.57-18.13c-.31 1.16-.6 2.33-.84 3.51.12-.3.23-.6.36-.9.05-.15.09-.31.14-.46.09-.73.21-1.44.34-2.15" class="st15"/>
  <path fill="#87b6e3" d="M29.25 82.3c-.28.68-.55 1.37-.81 2.06-.52 1.79-.99 3.58-1.4 5.37-.48 2.22-.96 4.44-1.43 6.67a73.27 73.27 0 0 0-1.21 5.02c.37-.19.81-.43 1.23-.69.11-1.22.26-2.43.43-3.64.16-3.75.92-7.41 2.29-10.98.25-1.18.53-2.35.84-3.51l.06-.29"/>
  <path d="M17.86 119.2c10.16-4.56 22.5-6.71 33.42-8.77 3.71-.7 7.39-1.32 10.99-2.11 9.91-1.24 19.87-2 29.92-2.46 14.86-.62 30.03-.2 44.85 1.87 16.38 2.31 33.64 5.77 50.04 8.01 35.78 3.76 71.67 5.4 107.8 3.45l.2.96c-19.06 4.04-38.53 5.93-57.99 6.36-17.03.23-34.12.13-51.09-1.47-16.93-1.91-33.64-5.18-50.44-7.88-31.55-4.71-63.63-3.91-95.13-.59-7.52.7-15.03 1.67-22.33 3.57l-.25-.94Z" class="st0"/>
</svg>