<svg xmlns="http://www.w3.org/2000/svg" id="Layer_1" version="1.1" viewBox="0 0 639.14 133.82">
  <defs>
    <style>
      .st0{fill:#6babe1}.st1{fill:#fff}
    </style>
  </defs>
  <path d="M420.65 77.72h-3.04v5.46h-4v-18.2h7.44c4.34 0 6.97 2.57 6.97 6.29v.05c0 4.21-3.28 6.4-7.36 6.4Zm3.3-6.37c0-1.79-1.25-2.76-3.25-2.76h-3.09v5.56h3.17c2 0 3.17-1.2 3.17-2.76v-.05ZM439.81 83.5c-5.62 0-9.65-4.19-9.65-9.36v-.05c0-5.17 4.08-9.41 9.7-9.41s9.65 4.19 9.65 9.36v.05c0 5.17-4.08 9.41-9.7 9.41Zm5.51-9.41c0-3.12-2.29-5.72-5.51-5.72s-5.46 2.55-5.46 5.67v.05c0 3.12 2.29 5.72 5.51 5.72s5.46-2.55 5.46-5.67v-.05ZM461.91 83.5c-5.62 0-9.65-4.19-9.65-9.36v-.05c0-5.17 4.08-9.41 9.7-9.41s9.65 4.19 9.65 9.36v.05c0 5.17-4.08 9.41-9.7 9.41Zm5.51-9.41c0-3.12-2.29-5.72-5.51-5.72s-5.46 2.55-5.46 5.67v.05c0 3.12 2.29 5.72 5.51 5.72s5.46-2.55 5.46-5.67v-.05ZM475.17 83.19v-18.2h4v14.56h9.07v3.64h-13.08ZM497.74 83.45c-2.76 0-5.54-.96-7.72-2.91l2.37-2.83c1.64 1.35 3.35 2.21 5.43 2.21 1.64 0 2.63-.65 2.63-1.72v-.05c0-1.01-.62-1.53-3.67-2.31-3.67-.94-6.03-1.95-6.03-5.56v-.05c0-3.3 2.65-5.49 6.37-5.49 2.65 0 4.91.83 6.76 2.31l-2.08 3.02c-1.61-1.12-3.2-1.79-4.73-1.79s-2.34.7-2.34 1.59v.05c0 1.2.78 1.59 3.93 2.39 3.69.96 5.77 2.29 5.77 5.46v.05c0 3.61-2.76 5.64-6.68 5.64ZM146.7 36.65c-1.11-.57-2.78-.85-4.96-.85l-36.56-.02 1.65-3.26c.67-1.37 1.85-2.48 3.51-3.29 1.53-.81 3.19-1.22 4.94-1.22l37.24.02 5.21-5.33-44.03.04c-2.96 0-6.22.65-9.7 1.93-4.34 1.61-7.4 3.78-9.1 6.47l-5.01 9.91 40.53.02c1.64 0 2.67.04 3.04.12 1.17.25 1.17.81 1.17.99 0 .22-.09.64-.5 1.43l-1.76 3.5c-1.12 1.63-3.2 2.45-6.16 2.45l-40.59-.02-2.97 5.93 46.52.02h.02c6.5 0 11.48-2.06 14.84-6.18l3.82-7.54c.41-.83.62-1.64.62-2.39 0-1.2-.59-2.11-1.76-2.71ZM176.05 22.77c-2.87 0-5.93.61-9.11 1.81-3.94 1.49-6.8 3.6-8.51 6.29l-9.88 19.63-.03.1c-.1 1.16.2 2.14.9 2.9 1.24 1.35 3.66 2.01 7.4 2.01l47.24.03 2.9-5.87-41.69-.02c-1.66-.15-2.73-.53-3.18-1.13-.22-.3-.29-.66-.21-1.09l1.75-3.47 37.23.02h.01c3.43 0 6.12-.91 8.01-2.71 1.07-1.02 1.89-2.07 2.43-3.14l7.71-15.39-42.97.04Zm29.38 5.22-3.5 7.09c-.46.91-1.34 1.88-2.6 2.88-1.18.49-2.77.74-4.72.74h-.01l-28.33-.02 3.1-6.13c.67-1.34 1.82-2.45 3.41-3.29 1.6-.85 3.25-1.28 4.9-1.28l27.74.02ZM277.08 24.28c-2.04-.97-4.34-1.46-6.83-1.47l-43.68-.02-2.65 5.27 39.94.02c1.13 0 2.11.21 2.9.63.92.47 1.37 1.14 1.37 2.03 0 .47-.15 1.02-.43 1.62l-.85 1.7-36.7-.02h-.01c-6.13 0-10.19 1.9-12.08 5.65l-4.68 9.4c-.2.4-.29.91-.29 1.56 0 1.64.75 2.88 2.24 3.7 1.44.79 3.61 1.19 6.45 1.19l46.64.02 12.08-24.11c.27-.74.41-1.46.41-2.13 0-2.14-1.29-3.83-3.84-5.04Zm-50.11 23.13 2.7-5.42c.66-1.33 1.63-2.17 2.86-2.51.67-.19 2.03-.29 4.04-.29h.03l27.61.02-5.2 10.41-28.8-.02c-1.55 0-2.57-.29-3.02-.85-.28-.35-.34-.81-.23-1.35Z" class="st1"/>
  <path d="M340.42 39.47c0 .72-.2 1.48-.59 2.27l-3.82 7.54c-3.29 4.03-8.17 6.04-14.62 6.04l-46.08-.02 2.7-5.39 40.42.02c3.07 0 5.2-.86 6.39-2.57l1.78-3.53c.35-.68.53-1.2.53-1.56 0-.64-.46-1.06-1.38-1.26-.4-.08-1.43-.12-3.09-.12l-40.09-.02 4.81-9.51c1.67-2.63 4.65-4.75 8.95-6.34 3.47-1.28 6.67-1.91 9.61-1.91l43.38-.04-4.68 4.79-37.13-.02c-1.8 0-3.49.42-5.07 1.26-1.71.84-2.92 1.97-3.62 3.41l-1.85 3.65 37 .02c4.3 0 6.45 1.1 6.45 3.29ZM406.06 24.54c2.5 1.16 3.75 2.74 3.75 4.73 0 .64-.13 1.3-.4 1.97l-9.82 19.51c-3.16 3.07-7.73 4.6-13.7 4.6l-35.02-.02-12.83 25.5h-11.85l28.98-57.69 44.04.02c2.54 0 4.83.46 6.85 1.38Zm-9.42 8.01c.31-.6.46-1.22.46-1.86 0-1.92-1.43-2.87-4.28-2.87h-27.78L353.9 50l28.97.02c3.03 0 5.11-.86 6.26-2.57l7.51-14.9ZM460.04 24.57c2.5 1.16 3.75 2.74 3.75 4.73 0 .64-.13 1.3-.39 1.97l-2.31 4.61h-11.92l1.65-3.3c.31-.6.46-1.2.46-1.8 0-1.95-1.49-2.93-4.47-2.94h-17.18l-13.77 27.51h-12.11l16.21-32.2 33.31.02c2.5 0 4.76.46 6.78 1.38ZM522.12 24.66c2.46 1.16 3.68 2.76 3.68 4.79 0 .64-.13 1.32-.39 2.03l-11.99 23.93-46.48-.02c-5.62 0-8.43-1.54-8.42-4.61 0-.6.09-1.08.26-1.43l4.68-9.39c1.85-3.67 5.8-5.5 11.85-5.5l36.87.02.92-1.86c.31-.64.46-1.22.46-1.74 0-1-.51-1.76-1.51-2.28-.84-.44-1.84-.66-3.03-.66l-39.5-.02 2.37-4.73 43.51.02c2.46 0 4.7.48 6.72 1.44Zm-17.79 25.37 5.47-10.95-28.04-.02c-2.06 0-3.45.1-4.15.3-1.32.36-2.33 1.24-3.03 2.65l-2.7 5.41c-.4 1.72.76 2.59 3.49 2.59l28.97.02ZM592.89 23.2l-19.84 39.6c-1.84 2.63-5 4.73-9.48 6.29-3.64 1.28-6.93 1.92-9.87 1.91l-36.34-.02 5.07-4.72 29.89.02c3.9 0 7.06-1.53 9.48-4.6l3.1-6.22-34.95-.02c-5.22 0-7.84-1.3-7.83-3.89 0-.24.02-.46.07-.66l13.9-27.64 11.85-.05-12.26 24.41c-.04.16-.07.34-.07.54 0 1.16 1.03 1.84 3.09 2.04l28.9.02 13.51-26.93 11.78-.05Z" class="st0"/>
  <path d="M19.22 93.33c42.16-14.46 86.67-20.76 130.81-25.54l9.73-.97 9.89-.45c63.24-2.7 127.41 6.46 189.9 15.26 86.32 14.62 171.89 16.95 259.99 13.87l.37 2.08c-24.75 4.58-49.71 8.07-74.79 10.42-50.18 4.54-100.8 4.1-150.93-1.02-74.47-8.51-149.71-22.45-224.69-23.75l-9.37-.11-9.38.41c-18.12.82-38.41 1.78-56.42 3.14-25.04 1.75-50.02 4.43-74.74 8.75l-.38-2.08Z" class="st0"/>
</svg>
