<svg xmlns="http://www.w3.org/2000/svg" id="Layer_1" version="1.1" viewBox="0 0 294.8 85.04">
  <defs>
    <style>
      .st0{fill:#6aabe0}.st1{fill:#fff}
    </style>
  </defs>
  <path d="M60.97 30.43c0 .33-.09.68-.27 1.05l-1.76 3.48c-1.52 1.86-3.77 2.79-6.75 2.79H30.93l1.25-2.5h18.65c1.42.01 2.4-.38 2.95-1.18l.82-1.63c.16-.31.24-.55.24-.72 0-.29-.21-.49-.64-.58-.18-.04-.66-.06-1.43-.06h-18.5l2.22-4.4c.77-1.21 2.15-2.19 4.13-2.92 1.6-.59 3.08-.88 4.44-.88l20.02-.02-2.16 2.21H45.79c-.83 0-1.61.18-2.34.57-.79.39-1.35.91-1.67 1.57l-.85 1.68H58c1.98.01 2.98.52 2.98 1.53Zm6.19 3.68c-.14.68.41 1.08 1.67 1.19h19.05l-1.22 2.47H64.94c-2.59-.01-3.83-.72-3.7-2.14l4.56-9.06c.77-1.21 2.06-2.16 3.86-2.84 1.46-.55 2.85-.83 4.16-.83l19.62-.02-3.47 6.92c-.24.48-.61.95-1.09 1.41-.85.81-2.06 1.22-3.62 1.22H68.01l-.85 1.67Zm5.1-8.45c-.76.4-1.3.93-1.63 1.57l-1.52 3.01h13.27c.93 0 1.68-.11 2.25-.35.61-.48 1.02-.94 1.25-1.38l1.7-3.45h-13c-.79 0-1.56.19-2.32.6Zm48.13-2.07c1.13.53 1.7 1.27 1.7 2.21 0 .29-.06.61-.18.94l-5.54 11.04H94.92c-2.59-.01-3.89-.72-3.89-2.14 0-.28.04-.5.12-.66l2.16-4.33c.85-1.69 2.67-2.54 5.47-2.54h17.01l.43-.85c.14-.29.21-.56.21-.8 0-.46-.23-.81-.7-1.05-.38-.2-.85-.3-1.4-.3H96.1l1.1-2.19h20.08c1.13.01 2.17.23 3.1.68Zm-8.21 11.7 2.52-5.05h-12.94c-.95 0-1.59.04-1.91.13-.61.17-1.07.57-1.4 1.22l-1.25 2.5c-.18.8.35 1.19 1.61 1.19h13.37Z" class="st1"/>
  <path d="M149.66 30.48c0 .33-.09.68-.27 1.05l-1.76 3.48c-1.52 1.86-3.77 2.79-6.74 2.79h-21.26l1.25-2.5h18.65c1.42.01 2.4-.38 2.95-1.18l.82-1.63c.16-.31.24-.55.24-.72 0-.29-.21-.49-.64-.58-.18-.04-.66-.06-1.43-.06h-18.5l2.22-4.4c.77-1.21 2.15-2.19 4.13-2.92 1.6-.59 3.08-.88 4.44-.88l20.02-.02-2.16 2.21h-17.13c-.83 0-1.61.18-2.34.57-.79.39-1.35.91-1.67 1.57l-.85 1.68h17.07c1.98.01 2.98.52 2.98 1.53h-.02Zm30.29-6.89c1.15.53 1.73 1.26 1.73 2.18 0 .29-.06.6-.18.91l-4.53 9c-1.46 1.42-3.57 2.12-6.32 2.12h-16.16l-3.62 7.17h-5.47l11.07-22.04h20.32c1.17.01 2.23.22 3.16.65Zm-4.34 3.7c.14-.28.21-.56.21-.86 0-.88-.66-1.33-1.97-1.33h-12.82l-5.14 10.24h13.37c1.4 0 2.36-.39 2.89-1.18l3.47-6.87h-.01Zm29.25-3.69c1.15.54 1.73 1.26 1.73 2.18 0 .29-.06.6-.18.91l-1.06 2.13h-5.5l.76-1.52c.14-.28.21-.55.21-.83 0-.9-.69-1.35-2.06-1.35h-7.93l-6.36 12.7h-5.59l7.48-14.86h15.37c1.15 0 2.2.22 3.13.64Zm28.65.05c1.13.54 1.7 1.27 1.7 2.21 0 .29-.06.61-.18.94l-5.53 11.04h-21.45c-2.59-.01-3.89-.72-3.89-2.14 0-.28.04-.5.12-.66l2.16-4.33c.85-1.69 2.67-2.54 5.47-2.54h17.01l.43-.85c.14-.29.21-.56.21-.8 0-.46-.23-.81-.7-1.05-.39-.2-.85-.3-1.4-.3h-18.23l1.09-2.19h20.08c1.13.01 2.17.23 3.1.67Zm-8.21 11.7 2.52-5.05h-12.94c-.95 0-1.59.04-1.91.13-.61.17-1.07.57-1.4 1.22l-1.25 2.5c-.18.8.35 1.19 1.61 1.2h13.37Zm40.86-12.38-9.15 18.27c-.85 1.22-2.31 2.18-4.38 2.9-1.68.59-3.2.88-4.56.88H231.3l2.34-2.19h13.79c1.8 0 3.26-.7 4.38-2.12l1.43-2.87h-16.13c-2.41-.01-3.62-.61-3.61-1.81 0-.11 0-.21.03-.3l6.42-12.76 5.47-.02-5.66 11.26c-.02.07-.03.16-.03.25 0 .54.47.85 1.43.94h13.33l6.23-12.42 5.44-.03v.02Z" class="st0"/>
  <path d="m159.57 46.36.69-1.46h3.85c1.17 0 2.19-.66 2.65-1.63.47-1 .07-1.62-1.1-1.62h-5.08l-3.37 7.11h-1.66l4.08-8.61h6.74c2.21 0 2.94 1.2 2.05 3.08a5.503 5.503 0 0 1-4.99 3.14h-3.86Zm15.66 2.39c-2.68 0-3.76-1.9-2.57-4.39 1.2-2.54 3.97-4.22 6.65-4.22h2.33c2.77 0 3.88 1.72 2.7 4.22-1.18 2.5-4.05 4.39-6.78 4.4h-2.33Zm3.05-1.51c1.77 0 3.58-1.2 4.35-2.82s.07-2.78-1.7-2.78h-2.33c-1.71 0-3.52 1.15-4.3 2.78-.77 1.62-.08 2.82 1.65 2.82h2.33Zm13.6 1.51c-2.68 0-3.76-1.89-2.57-4.39 1.2-2.53 3.97-4.22 6.65-4.22h2.33c2.77 0 3.88 1.72 2.7 4.22-1.18 2.5-4.05 4.4-6.78 4.4h-2.33Zm3.04-1.51c1.77 0 3.59-1.2 4.35-2.82.77-1.62.07-2.78-1.7-2.78h-2.33c-1.71 0-3.52 1.15-4.3 2.78-.77 1.62-.08 2.82 1.64 2.82h2.34Zm9.22 1.5 4.08-8.61h1.67l-3.36 7.11h6.44l-.71 1.5h-8.12zm13.2 0 .71-1.5h7.19c.9 0 1.61-.45 1.93-1.13.35-.73.03-1.11-.87-1.11h-4.4c-1.81 0-2.44-1.03-1.76-2.45.66-1.39 2.19-2.42 4.1-2.42h6.88l-.71 1.5h-6.88c-.76 0-1.4.4-1.71 1.05-.31.65-.03 1.04.71 1.04h4.39c1.94 0 2.59.82 1.8 2.49-.68 1.45-2.17 2.52-4.17 2.52h-7.21Z" class="st1"/>
  <path d="M30.3 60.55c8.26-3.71 18.3-5.46 27.18-7.13 3.02-.57 6.01-1.07 8.94-1.72 8.06-1.01 16.16-1.63 24.34-2 12.09-.5 24.43-.16 36.48 1.52 13.32 1.88 27.36 4.69 40.7 6.52 29.1 3.06 58.3 4.39 87.68 2.81l.16.78c-15.5 3.29-31.34 4.82-47.17 5.17-13.85.19-27.75.11-41.56-1.2-13.77-1.55-27.36-4.21-41.03-6.41-25.66-3.83-51.76-3.18-77.38-.48-6.12.57-12.23 1.36-18.16 2.9l-.2-.76Z" class="st0"/>
</svg>
